<svg id="Capa_1" fill="#fff" enable-background="new 0 0 520 520" height="512" viewBox="0 0 520 520" width="512" xmlns="http://www.w3.org/2000/svg"><g><path d="m275 339.718v-75h-30v75c0 8.284-6.716 15-15 15h-15v16.973l45 30 45-30v-16.973h-15c-8.284 0-15-6.716-15-15z"/><path d="m475 125.016h-206.597l-56.861-92.85c-2.727-4.452-7.571-7.166-12.792-7.166h-153.75c-24.813 0-45 20.187-45 45v380c0 24.813 20.187 45 45 45h430c24.813 0 45-20.187 45-45v-279.984c0-24.814-20.187-45-45-45zm-140 254.702c0 5.016-2.507 9.699-6.68 12.48l-60 40c-2.52 1.68-5.42 2.52-8.32 2.52s-5.801-.84-8.32-2.52l-60-40c-4.173-2.781-6.68-7.465-6.68-12.48v-40c0-8.284 6.716-15 15-15h15v-75c0-8.284 6.716-15 15-15h60c8.284 0 15 6.716 15 15v75h15c8.284 0 15 6.716 15 15z"/><path d="m475 95.016v-5.016c0-24.813-20.187-45-45-45h-175.42l30.63 50.016z"/></g></svg>